<svg xmlns="http://www.w3.org/2000/svg" viewBox="0 0 90 70"><defs><style>.cls-1{fill:#60ba62;}</style></defs><title>Artboard 3</title><g id="Layer_3" data-name="Layer 3"><path id="Delivery-icon" class="cls-1" d="M74.53,48.14A9.88,9.88,0,1,1,67,51.73l-2.46-2.48a13.17,13.17,0,0,0-3.11,10.8l.13.86H35.94A9.81,9.81,0,0,1,16.73,58c0-.12,0-.25,0-.37H14l.07-.82a12.57,12.57,0,0,1,6.56-10H10.27v-1H5.55V27.62H23.7V39.76a4.32,4.32,0,0,1,3.06-1.26h1.78a9.79,9.79,0,0,1,.88-12.78L41.24,14.1l4.12,4.25H63.09v7H42.6l-6.89,6.77a.69.69,0,0,0-.18.42L49.77,37.1l2.11,17.3H53.1a22,22,0,0,1,14.15-17l.64-15H65.21v-1.5h4l.19,0v0h0V21l4.2,10.42A3.93,3.93,0,0,1,75,31.12,4.13,4.13,0,0,1,76.71,39l2.61,6.46-1.44-.38a13.06,13.06,0,0,0-12.33,3.1L68,50.65A9.74,9.74,0,0,1,74.53,48.14Zm-48,18.28A8.37,8.37,0,0,0,34.88,58c0-.12,0-.25,0-.37H31.38c0,.13,0,.25,0,.37a4.85,4.85,0,1,1-9.69,0c0-.12,0-.25,0-.37H18.25c0,.13,0,.25,0,.37A8.37,8.37,0,0,0,26.55,66.42ZM29.91,58c0-.12,0-.25-.05-.37H23.25a3.34,3.34,0,1,0,6.63.83A3.55,3.55,0,0,0,29.91,58ZM22.2,29.12H7V44.39H22.2Zm-6.54,27h21.8a11,11,0,0,0-10.9-9.26h0A11,11,0,0,0,15.66,56.15ZM38.58,54.4h4.29L42,46.89H32.5a12.54,12.54,0,0,1,6.08,7.51ZM26.76,40a3,3,0,0,0-2.94,3v2.43h18l-.18-1.45L30.19,40.3l-.3-.3Zm21.65-1.76L34.29,33.73l-.12-.35a2.17,2.17,0,0,1-.13-.76,2.22,2.22,0,0,1,.62-1.56l5.8-5.7h-3v-1.5H42l.1-.1.09.1H61.6v-4H44.85l-.06.06-.06-.06h-2v-1.5h.56l-2.06-2.13L30.47,26.79a8.31,8.31,0,0,0,0,11.68L31,39,43,42.8l1.35,11,5.92-.73Zm29.23-3A2.64,2.64,0,0,0,75,32.62a2.4,2.4,0,0,0-.84.15l2,4.84A2.63,2.63,0,0,0,77.64,35.25Zm-3.11,7.89a13.76,13.76,0,0,1,2.31.19l-1.6-4-.22,0v-.56L69.28,24.59,68.69,38.5l-.49.16A20.46,20.46,0,0,0,54.48,55.25l-.09.65H38.92c0,.31.1.62.13.93l.07.82H36.34c0,.13,0,.25,0,.37a10.69,10.69,0,0,1-.11,1.38H59.81c-.05-.46-.07-.92-.08-1.38a14.9,14.9,0,0,1,4.08-10.24.94.94,0,0,1,.12-.18l.11-.07A14.66,14.66,0,0,1,74.53,43.14ZM66.2,58a8.33,8.33,0,1,0,8.33-8.38,8.22,8.22,0,0,0-5.47,2.07l2.48,2.5a4.8,4.8,0,0,1,3-1.07,4.88,4.88,0,1,1-4.85,4.9,5,5,0,0,1,.83-2.75L68,52.8A8.35,8.35,0,0,0,66.2,58Zm8.23.16a.74.74,0,0,1-1.05,0h0L71.61,56.4a3.34,3.34,0,1,0,4.52-1.35,3.42,3.42,0,0,0-1.6-.4,3.25,3.25,0,0,0-1.93.63l1.83,1.84a.77.77,0,0,1,0,1.07ZM46.88,16.48A7.2,7.2,0,1,1,54,9.23v0A7.18,7.18,0,0,1,46.88,16.48Zm0-12.9a5.7,5.7,0,1,0,5.65,5.74v0A5.69,5.69,0,0,0,46.88,3.58ZM19.22,22.86H10.27v-1.5h9Zm-1-6.76H35.38v1.51H18.23Z"/></g></svg>