<svg id="Layer_1" data-name="Layer 1" xmlns="http://www.w3.org/2000/svg" viewBox="0 0 90 70"><defs><style>.cls-1{fill:#60ba62;}</style></defs><title>Artboard 1</title><path id="Meal-icon" class="cls-1" d="M87,66.05h-5a1,1,0,0,1-1-1h0V36A55.55,55.55,0,0,1,78,18.86C78,6.24,86.76,4.33,86.84,4.31a1,1,0,0,1,.81.2,1,1,0,0,1,.35.77V65.07A1,1,0,0,1,87,66.05Zm-1-59.39c-2.06.94-6.13,3.86-6.13,12.2a53.91,53.91,0,0,0,2.83,16h3.3Zm0,30.14H83V64.08h3V36.8ZM46.77,65.14a30.35,30.35,0,1,1,30-30.66v.31A30.23,30.23,0,0,1,46.77,65.14Zm0-58.72A28.38,28.38,0,1,0,74.86,35.09V34.8A28.27,28.27,0,0,0,46.77,6.42Zm0,47.47A19.1,19.1,0,1,1,65.68,34.6v.19a19,19,0,0,1-18.91,19.1Zm0-36.23a17.13,17.13,0,1,0,17,17.3v-.17A17.06,17.06,0,0,0,46.77,17.66ZM10.53,25v9.88H12a1,1,0,0,1,1,1h0V65.07a1,1,0,0,1-1,1h-5a1,1,0,0,1-1-1V35.81a1,1,0,0,1,1-1H8.58V25A7.18,7.18,0,0,1,2,17.45V4.93A1,1,0,0,1,3,4a1,1,0,0,1,1,1H4v9.35H6.41V4.93a1,1,0,0,1,1-1,1,1,0,0,1,1,1h0v9.35h2.39V4.93a1,1,0,0,1,1-1,1,1,0,0,1,1,1h0v9.35h2.46V4.93a1,1,0,0,1,1-1,1,1,0,0,1,1,1h0V17.45A7.17,7.17,0,0,1,10.53,25ZM8.05,36.8V64.08h3V36.8Zm7.11-20.54H4v1.19A5.31,5.31,0,0,0,9,23a5.8,5.8,0,0,0,.59,0,5.31,5.31,0,0,0,5.61-5,5.8,5.8,0,0,0,0-.59v-1.2Z"/></svg>